<svg width="301" height="100" viewBox="0 0 301 100" fill="none" xmlns="http://www.w3.org/2000/svg">
<path d="M115.652 86.6971C104.473 79.4956 89.3011 78.2318 64.833 85.0202C38.7485 91.1499 30.0516 95.0793 18.63 87.1913C14.2421 83.3164 12.669 77.0774 13.8437 68.0905C16.5683 53.4404 23.9313 39.3419 37.0098 23.7033C44.31 15.5682 51.0816 8.58675 60.0234 5.78328C66.8764 4.02459 66.2357 9.41033 65.4065 10.1806C64.5314 10.1806 63.0616 10.3184 61.9255 11.0597C61.0035 11.7748 58.4727 14.0837 58.3368 17.1894C58.1407 21.9439 63.0612 20.9543 65.1834 18.3439C67.4709 15.4022 70.8515 9.76898 68.1923 4.51881C67.0777 2.65008 65.1518 1.35857 62.7607 0.918801C54.573 0.450868 46.9475 4.35394 39.9101 8.66899C24.5194 19.3605 12.2078 34.1751 5.24136 50.3913C1.22487 60.1755 -2.40743 74.1909 3.03727 85.5982C7.24904 93.5133 15.9933 97.7175 26.4257 96.8384C33.7425 96.0696 42.59 93.7048 48.5406 92.277C54.4912 90.8469 84.9515 80.3762 94.9599 98.5997C94.9599 98.5997 98.288 92.1391 106.605 92.0013C113.443 91.3704 123.308 93.9808 130.492 99.2569C128.098 95.6577 121.313 90.353 115.652 86.6971Z" fill="#5380EA" fill-opacity="0.6"/>
<path d="M67.9391 25.5446C62.242 21.8067 50.7916 28.9527 41.6203 41.2102C33.2335 52.2051 29.6121 64.9839 33.5531 70.8932C39.4158 77.8465 50.2992 67.7326 54.9275 62.319L55.5246 61.6862C58.6721 58.3055 61.1037 54.2376 63.4573 50.3345C63.4573 50.3345 65.6205 46.7616 65.7237 46.5963C67.0607 46.35 68.671 45.965 70.4857 45.4426C70.4598 45.5245 63.5429 57.1507 64.2486 62.9214C64.4683 64.682 64.3004 71.1133 70.5796 73.0642C78.9483 74.4669 85.6308 67.9797 91.5262 62.2079C91.5262 62.2079 92.5308 61.2468 93.099 60.6982C92.9551 61.2739 92.7677 62.0419 92.7677 62.0419C90.3177 70.5623 93.6202 72.3499 95.6861 73.0098C101.93 74.8248 109.388 65.7542 109.412 65.7542C109.219 68.6114 108.653 70.9751 111.665 72.8716C114.508 73.8893 117.385 72.3379 119.572 70.8812C127.449 65.3294 133.795 56.6404 138.921 49.1294H135.652C135.613 49.1294 127.584 60.7669 122.37 63.2962C122.362 63.2962 121.413 63.7833 120.866 63.398C120.19 62.8204 120.457 61.6201 120.875 60.7699C120.901 60.7143 141.005 25.8454 141.005 25.8454H131.513C131.513 25.8454 130.476 27.523 130.391 27.633C130.327 27.5782 130.175 27.2898 130.07 27.1516C124.189 19.0164 110.871 31.5297 100.844 46.0409C96.9837 51.6208 92.0688 57.9033 86.9726 62.4381C86.9726 62.4381 79.423 69.3587 76.197 64.3864C75.0178 62.2973 75.3806 59.2429 76.0457 57.2371C79.8016 46.5456 86.2734 36.8426 93.6379 30.9878C95.7169 29.3673 97.9766 28.8986 99.098 29.5859C100.166 30.219 100.339 31.7843 99.6628 32.8565C97.9477 32.8017 96.5735 33.3229 95.4563 34.4774C93.2556 36.7862 92.491 39.0129 93.1906 41.102C96.5897 45.9391 103.369 36.3743 103.041 30.5476C102.924 28.4585 101.809 26.4801 100.146 25.5172C97.6668 24.0337 93.885 24.4179 91.4375 25.6005C88.1613 26.8368 82.9749 31.1515 79.9476 34.5052C76.1366 38.7109 69.6005 43.3828 67.5564 42.8596C68.226 41.0724 73.747 29.7766 67.9391 25.5446ZM113.704 42.255C115.55 39.6994 120.925 32.8554 122.235 31.7013C126.642 27.8245 128.403 29.5303 128.556 30.7388C124.443 38.1044 119.589 46.5426 115.025 54.1287C115.035 54.1017 113.597 56.2997 113.597 56.2997C111.582 59.3774 109.552 62.016 106.242 63.8573C105.77 63.9955 104.991 64.0507 104.474 63.6646C103.85 63.2523 103.604 62.565 103.674 61.85C103.873 59.487 106.279 52.26 113.704 42.255ZM62.064 46.6797C62.064 46.6797 61.9814 46.9279 61.9405 47.0091C61.9299 47.0091 57.8019 53.7419 57.8019 53.7419C55.3105 57.0681 52.1999 61.2468 48.3114 63.2523C47.1589 63.6372 45.5658 63.8851 44.7539 62.8688C43.0327 60.8071 43.9198 57.9488 44.6405 55.6403L44.8954 54.8156C46.9617 49.2094 50.2403 44.2612 53.4313 39.6712C53.4711 39.6442 53.5605 39.6168 53.5928 39.6168C53.6003 39.6442 53.6131 39.6442 53.6187 39.6994C55.6211 43.5465 59.3758 45.3322 62.1838 46.1581C62.2007 46.1581 62.2187 46.1855 62.2187 46.2407C62.2191 46.3225 62.1733 46.4333 62.064 46.6797ZM65.975 38.7376C65.957 38.7924 64.1363 42.9697 64.1363 42.9697C63.873 43.1893 63.4569 43.0797 62.98 42.9697L62.1628 42.8314C59.5967 42.0349 57.6611 40.3307 57.0643 38.2971C56.2411 34.3392 59.6222 31.2334 61.112 30.1071C62.5413 29.1168 64.7635 28.5948 66.0538 29.6121C66.8496 30.5469 67.1512 31.7558 67.1512 33.0758C67.1516 34.8619 66.6003 36.8681 65.975 38.7376Z" fill="#5380EA" fill-opacity="0.6"/>
<path d="M185.978 51.4894C185.063 49.511 182.89 48.2465 180.574 48.3836C173.055 49.0712 165.7 55.255 161.838 64.1318C159.811 68.6947 158.705 72.4596 157.98 78.4511C160.318 75.7584 165.088 71.3337 170.5 68.9148C170.5 68.9148 171.237 63.1708 174.992 58.0585C176.413 55.9415 179.257 52.5338 182.451 53.4403C185.241 54.3754 184.26 62.0986 180.552 69.5728C177.808 75.0704 173.61 80.5688 169.361 84.3607C165.605 87.5491 160.048 91.3966 155.187 88.4287C152.124 86.6155 150.562 82.8217 150.893 77.9295C152.356 64.0503 158.674 52.2318 167.715 38.7646C177.038 26.2593 187.314 13.4241 201.158 6.57939C203.982 5.15043 206.597 4.8207 208.857 5.70023C208.857 5.70023 195.862 12.8462 189.667 26.0666C188.091 29.4203 185.899 33.9539 188.106 37.967C189.26 40.0554 191.308 40.2206 192.956 40.1106C200.549 38.3512 205.455 31.2604 209.463 24.7747C211.787 19.855 213.853 14.9628 213.853 9.52069C213.853 8.86123 213.819 7.98207 213.763 7.32185C217.391 5.39867 224.829 8.80602 224.829 8.80602C230.643 10.7307 243.02 20.2133 247.196 22.0265C249.232 19.6631 252.579 16.0905 254.464 14.3037L251.736 12.6269C247.368 9.96083 242.751 7.43189 238.207 4.93111C227.888 -0.702493 219.488 1.2759 215.212 2.81527C213.532 3.41953 211.997 3.94192 211.997 3.94192C208.824 0.478983 203.621 0.807963 199.787 1.74308C185.999 5.70061 173.198 15.3473 159.473 32.0859C149.383 45.1963 143.124 56.5202 139.788 67.7059C137.217 75.236 136.435 86.3125 142.711 92.8816C148.047 98.4592 155.123 97.2511 160.12 95.2453C170.946 89.9132 180.676 78.4241 185.524 65.204C186.694 61.2743 187.993 55.7225 185.978 51.4894ZM210.872 10.0709C209.439 26.5067 196.663 36.1546 193.502 36.923C191.586 37.3071 188.317 36.4558 191.236 29.5581C195.533 20.2674 202.87 12.3801 210.741 8.33959C210.933 9.02684 210.928 9.46548 210.872 10.0709Z" fill="#5380EA" fill-opacity="0.6"/>
<path d="M286.657 12.1589C279.785 16.0624 272.661 18.5902 264.038 17.711C261.648 20.4052 259.321 23.1809 257.176 26.0388C269.279 29.1172 282.111 22.2736 289.267 15.7604C296.838 9.19133 300.72 0.919128 300.72 0.919128C300.72 0.919128 295.045 7.40485 286.657 12.1589Z" fill="#5380EA" fill-opacity="0.6"/>
<path d="M151.695 34.1078L156.782 25.8458H147.768L142.683 34.1078H151.695Z" fill="#5380EA" fill-opacity="0.6"/>
<path d="M264.001 87.462C263.032 88.1215 261.67 87.6145 262.179 86.1033C263.447 82.2554 268.49 74.414 268.49 74.414L282.534 49.5053H272.914C272.456 50.2564 271.479 51.9813 271.479 51.9813C271.033 51.24 269.703 49.5913 269.155 49.2353C266.804 47.75 263.356 48.4523 260.977 49.7986C250.635 55.8461 243.089 67.7942 237.138 77.1119C237.138 77.1119 230.874 87.4695 227.396 88.2398C224.681 88.4598 224.962 84.8028 225.079 83.9506C226.129 77.7931 228.566 71.9395 231.023 66.6348C236.018 63.1719 241.719 58.6372 246.899 53.6627C258.142 42.9152 267.621 30.7395 269.006 28.0187C269.006 28.0187 267.507 28.3214 265.736 28.3758C257.086 40.4415 239.386 57.9773 234.02 60.5878C236.397 54.87 251.756 27.5786 264.826 14.5237L266.883 12.5442C270.063 9.43844 273.359 6.25041 275.927 5.72802C276.198 5.7006 276.547 5.72802 276.848 6.36119C276.963 8.77935 276.063 10.5662 275.03 12.5998L273.583 15.5685C273.583 15.5685 275.633 15.1836 276.979 14.7427C278.541 11.8033 280.272 8.50407 279.634 4.57471C279.421 3.31024 278.506 2.34846 277.31 2.12839C273.411 1.3863 269.161 4.27127 265.742 6.60831L265.604 6.69017C248.028 20.46 233.186 40.304 220.211 67.404C219.271 68.1175 215.637 68.9704 215.019 68.5577C216.301 65.9198 217.914 62.3735 218.721 58.5256C218.861 57.426 218.991 56.2998 218.991 55.2005C218.991 52.8349 218.423 50.6094 216.304 49.0708C213.819 47.8338 210.749 48.4114 208.678 49.3453C199.403 53.1932 192.471 62.7036 187.468 70.5357C184.778 75.5117 182.095 80.8411 181.353 86.9438C180.829 91.7252 181.894 94.8036 184.613 96.3434C187.409 97.7716 190.928 96.287 192.31 95.5731C201.707 90.626 208.272 80.7048 213.448 71.6341C213.653 71.6071 216.479 71.5252 218.616 70.9747C218.645 70.9747 218.657 70.9747 218.704 71.0036C218.582 71.4141 217.477 74.7133 217.477 74.7133C214.197 84.3322 212.68 90.8743 215.779 94.7488C220.206 100.219 227.536 94.5573 233.498 87.0801C232.218 96.0399 236.862 97.4422 240.402 96.7557C244.468 95.6569 248.999 91.3133 251.101 89.0878C250.426 91.6982 250.61 96.3711 254.308 96.838C256.844 97.3066 258.741 95.9276 260.937 94.7454C268.811 90.4574 278.238 76.1689 280.685 72.0379H277.476C273.997 77.2959 269.57 84.1899 264.001 87.462ZM193.316 86.5051C192.817 85.763 192.651 84.9515 192.634 84.0742C192.539 78.6851 198.337 69.0339 202.429 63.7762C202.438 63.7762 202.438 63.7762 202.438 63.7762C204.153 67.5317 208.037 69.9457 210.382 70.963C207.47 77.4499 197.483 91.3422 193.316 86.5051ZM212.025 68.0631C211.748 68.2565 206.85 66.6067 205.904 62.0719C205.101 58.1677 207.789 55.1172 210.39 53.5793C211.507 52.6994 213.189 52.3978 214.422 52.8357C215.567 53.6063 215.877 54.9816 215.877 56.4635C215.877 57.3723 215.757 58.3059 215.651 59.1577C215.651 59.1577 215.63 59.3233 215.627 59.3507C214.811 62.4005 213.562 65.3967 212.025 68.0631ZM251.306 84.7738C251.302 84.7738 250.377 85.5982 250.377 85.5982C249.056 86.7793 247.696 88.0437 246.055 87.4113C245.602 87.2465 245.283 86.6426 245.206 86.1739C245.132 82.7932 246.654 79.6607 248.13 76.6105L248.509 75.8129C252.756 68.7221 257.692 60.3669 264.941 54.5685C266.163 53.6871 267.489 52.9465 268.888 53.5241C269.21 53.8256 269.585 54.3484 269.585 54.87C269.585 55.0357 269.438 55.475 269.353 55.6117C267.328 58.8839 265.4 62.319 263.525 65.6167C259.86 72.131 256.059 78.8638 251.306 84.7738Z" fill="#5380EA" fill-opacity="0.6"/>
</svg>
