<svg width="91" height="35" viewBox="0 0 91 35" fill="none" xmlns="http://www.w3.org/2000/svg">
<path d="M2.12011 32.936C16.8017 24.5689 53.9411 7.122 85.0466 4.27072" stroke="#F0B80D" stroke-width="4" stroke-linecap="round" stroke-linejoin="round"/>
<path d="M6.12172 23.064V5.60942H13.1104C14.3944 5.60942 15.4655 5.79976 16.3234 6.18044C17.1814 6.56112 17.8263 7.08953 18.2581 7.76567C18.6899 8.43612 18.9058 9.20885 18.9058 10.0839C18.9058 10.7657 18.7694 11.3651 18.4967 11.8821C18.224 12.3935 17.849 12.814 17.3717 13.1435C16.9001 13.4674 16.3604 13.6975 15.7524 13.8339V14.0043C16.4172 14.0327 17.0393 14.2202 17.6189 14.5668C18.2041 14.9134 18.6785 15.3992 19.0422 16.0242C19.4058 16.6435 19.5876 17.3821 19.5876 18.2401C19.5876 19.1662 19.3575 19.9929 18.8973 20.7202C18.4427 21.4418 17.7694 22.0128 16.8774 22.4333C15.9854 22.8537 14.8859 23.064 13.5791 23.064H6.12172ZM9.81206 20.0469H12.8206C13.849 20.0469 14.599 19.8509 15.0706 19.4589C15.5422 19.0611 15.778 18.5327 15.778 17.8736C15.778 17.3907 15.6615 16.9645 15.4285 16.5952C15.1956 16.2259 14.8632 15.9361 14.4314 15.7259C14.0052 15.5157 13.4967 15.4106 12.9058 15.4106H9.81206V20.0469ZM9.81206 12.9134H12.5479C13.0535 12.9134 13.5024 12.8253 13.8944 12.6492C14.2922 12.4674 14.6047 12.2117 14.8319 11.8821C15.0649 11.5526 15.1814 11.1577 15.1814 10.6975C15.1814 10.0668 14.9569 9.55828 14.5081 9.17192C14.0649 8.78555 13.4342 8.59237 12.616 8.59237H9.81206V12.9134ZM21.9207 23.064V9.97306H25.4406V12.2571H25.577C25.8156 11.4446 26.2162 10.831 26.7787 10.4162C27.3412 9.99578 27.9889 9.78556 28.7219 9.78556C28.9037 9.78556 29.0997 9.79692 29.3099 9.81965C29.5202 9.84237 29.7048 9.87362 29.8639 9.9134V13.135C29.6935 13.0839 29.4577 13.0384 29.1565 12.9986C28.8554 12.9589 28.5798 12.939 28.3298 12.939C27.7957 12.939 27.3185 13.0554 26.898 13.2884C26.4832 13.5157 26.1537 13.8339 25.9094 14.2429C25.6707 14.652 25.5514 15.1236 25.5514 15.6577V23.064H21.9207ZM35.099 23.3111C34.2638 23.3111 33.5194 23.1662 32.866 22.8765C32.2126 22.581 31.6956 22.1464 31.3149 21.5725C30.9399 20.9929 30.7524 20.2714 30.7524 19.4077C30.7524 18.6804 30.8859 18.0696 31.153 17.5753C31.42 17.081 31.7837 16.6833 32.2439 16.3821C32.7041 16.081 33.2268 15.8537 33.8121 15.7003C34.403 15.5469 35.0223 15.439 35.67 15.3765C36.4314 15.2969 37.045 15.2231 37.5109 15.1549C37.9768 15.081 38.3149 14.9731 38.5251 14.831C38.7354 14.689 38.8405 14.4787 38.8405 14.2003V14.1492C38.8405 13.6094 38.67 13.1918 38.3291 12.8964C37.9939 12.6009 37.5166 12.4532 36.8973 12.4532C36.2439 12.4532 35.724 12.5981 35.3376 12.8878C34.9513 13.1719 34.6956 13.5299 34.5706 13.9617L31.2126 13.689C31.3831 12.8935 31.7183 12.206 32.2183 11.6265C32.7183 11.0412 33.3632 10.5924 34.153 10.2799C34.9484 9.96169 35.8689 9.8026 36.9143 9.8026C37.6416 9.8026 38.3376 9.88783 39.0024 10.0583C39.6729 10.2287 40.2666 10.4929 40.7837 10.8509C41.3064 11.2089 41.7183 11.6691 42.0194 12.2316C42.3206 12.7884 42.4712 13.456 42.4712 14.2344V23.064H39.028V21.2486H38.9257C38.7155 21.6577 38.4342 22.0185 38.0819 22.331C37.7297 22.6378 37.3064 22.8793 36.8121 23.0554C36.3177 23.2259 35.7467 23.3111 35.099 23.3111ZM36.1388 20.8054C36.6729 20.8054 37.1444 20.7003 37.5535 20.4901C37.9626 20.2742 38.2837 19.9844 38.5166 19.6208C38.7496 19.2571 38.866 18.8452 38.866 18.385V16.9958C38.7524 17.0696 38.5962 17.1378 38.3973 17.2003C38.2041 17.2571 37.9854 17.3111 37.741 17.3623C37.4967 17.4077 37.2524 17.4503 37.0081 17.4901C36.7638 17.5242 36.5422 17.5554 36.3433 17.5839C35.9172 17.6464 35.545 17.7458 35.2268 17.8821C34.9087 18.0185 34.6615 18.2032 34.4854 18.4361C34.3092 18.6634 34.2212 18.9475 34.2212 19.2884C34.2212 19.7827 34.4001 20.1606 34.7581 20.4219C35.1217 20.6776 35.5819 20.8054 36.1388 20.8054ZM48.9186 15.4958V23.064H45.2879V9.97306H48.7481V12.2827H48.9016C49.1913 11.5214 49.6771 10.9191 50.3589 10.4759C51.0408 10.027 51.8675 9.8026 52.8391 9.8026C53.7481 9.8026 54.5408 10.0015 55.2169 10.3992C55.893 10.7969 56.4186 11.3651 56.7936 12.1037C57.1686 12.8367 57.3561 13.7117 57.3561 14.7287V23.064H53.7254V15.3765C53.7311 14.5753 53.5266 13.9503 53.1118 13.5015C52.697 13.0469 52.126 12.8196 51.3987 12.8196C50.9101 12.8196 50.4783 12.9248 50.1033 13.135C49.7339 13.3452 49.4442 13.652 49.2339 14.0554C49.0294 14.4532 48.9243 14.9333 48.9186 15.4958ZM65.0415 23.277C64.0471 23.277 63.1466 23.0214 62.3398 22.51C61.5386 21.9929 60.9023 21.2344 60.4307 20.2344C59.9648 19.2287 59.7318 17.9958 59.7318 16.5356C59.7318 15.0356 59.9733 13.7884 60.4562 12.7941C60.9392 11.7941 61.5812 11.0469 62.3824 10.5526C63.1892 10.0526 64.0727 9.8026 65.0329 9.8026C65.7659 9.8026 66.3767 9.9276 66.8653 10.1776C67.3596 10.4219 67.7574 10.7287 68.0585 11.0981C68.3653 11.4617 68.5983 11.8196 68.7574 12.1719H68.8682V5.60942H72.4903V23.064H68.9108V20.9674H68.7574C68.5869 21.331 68.3454 21.6918 68.0329 22.0498C67.7261 22.402 67.3256 22.6946 66.8312 22.9276C66.3426 23.1606 65.746 23.277 65.0415 23.277ZM66.192 20.3878C66.7773 20.3878 67.2716 20.2287 67.675 19.9106C68.0841 19.5867 68.3966 19.135 68.6125 18.5554C68.8341 17.9759 68.9449 17.2969 68.9449 16.5185C68.9449 15.7401 68.8369 15.064 68.621 14.4901C68.4051 13.9162 68.0926 13.4731 67.6835 13.1606C67.2744 12.8481 66.7773 12.6918 66.192 12.6918C65.5954 12.6918 65.0926 12.8537 64.6835 13.1776C64.2744 13.5015 63.9648 13.9503 63.7545 14.5242C63.5443 15.0981 63.4392 15.7628 63.4392 16.5185C63.4392 17.2799 63.5443 17.9532 63.7545 18.5384C63.9704 19.1179 64.2801 19.5725 64.6835 19.902C65.0926 20.2259 65.5954 20.3878 66.192 20.3878ZM79.5237 15.2571V8.96737H82.6004C82.9981 8.96737 83.3618 9.04976 83.6913 9.21453C84.0266 9.37931 84.2908 9.61794 84.4839 9.93044C84.6828 10.2373 84.7822 10.6123 84.7822 11.0554C84.7822 11.4986 84.68 11.8765 84.4754 12.189C84.2709 12.5015 83.9981 12.7401 83.6572 12.9049C83.3163 13.064 82.9385 13.1435 82.5237 13.1435H80.4186V11.9589H82.1828C82.4214 11.9589 82.626 11.8821 82.7964 11.7287C82.9726 11.5753 83.0606 11.3481 83.0606 11.0469C83.0606 10.7344 82.9726 10.5128 82.7964 10.3821C82.626 10.2458 82.4243 10.1776 82.1913 10.1776H81.1601V15.2571H79.5237ZM83.5379 12.3509L84.9697 15.2571H83.18L81.8419 12.3509H83.5379ZM81.9868 19.0071C81.0436 19.0071 80.1601 18.831 79.3362 18.4787C78.5123 18.1265 77.7879 17.6378 77.1629 17.0128C76.5379 16.3878 76.0493 15.6634 75.697 14.8395C75.3447 14.0157 75.1686 13.1321 75.1686 12.189C75.1686 11.2458 75.3447 10.3623 75.697 9.5384C76.0493 8.71453 76.5379 7.9901 77.1629 7.3651C77.7879 6.7401 78.5123 6.25146 79.3362 5.89919C80.1601 5.54692 81.0436 5.37078 81.9868 5.37078C82.93 5.37078 83.8135 5.54692 84.6373 5.89919C85.4612 6.25146 86.1856 6.7401 86.8106 7.3651C87.4356 7.9901 87.9243 8.71453 88.2766 9.5384C88.6288 10.3623 88.805 11.2458 88.805 12.189C88.805 13.1321 88.6288 14.0157 88.2766 14.8395C87.9243 15.6634 87.4356 16.3878 86.8106 17.0128C86.1856 17.6378 85.4612 18.1265 84.6373 18.4787C83.8135 18.831 82.93 19.0071 81.9868 19.0071ZM81.9868 17.2089C82.9186 17.2089 83.7623 16.9844 84.518 16.5356C85.2794 16.081 85.8845 15.4759 86.3334 14.7202C86.7822 13.9589 87.0067 13.1151 87.0067 12.189C87.0067 11.2628 86.7794 10.4219 86.3248 9.66624C85.876 8.90487 85.2709 8.29976 84.5095 7.8509C83.7538 7.39635 82.9129 7.16908 81.9868 7.16908C81.0663 7.16908 80.2254 7.39635 79.4641 7.8509C78.7027 8.29976 78.0976 8.90487 77.6487 9.66624C77.1998 10.4219 76.9754 11.2628 76.9754 12.189C76.9754 13.1151 77.1998 13.9589 77.6487 14.7202C78.0976 15.4759 78.7027 16.081 79.4641 16.5356C80.2254 16.9844 81.0663 17.2089 81.9868 17.2089Z" fill="black"/>
</svg>
