<svg width="263" height="57" viewBox="0 0 263 57" fill="none" xmlns="http://www.w3.org/2000/svg">
<path d="M92.7043 32.3283L91.1395 36.7619H91.0091C90.7483 35.7621 90.2702 34.2408 89.4878 32.4152L81.0988 11.3341H72.8837V44.9335H78.317V24.2001L78.2735 19.5927C78.23 18.6799 78.1431 17.9845 78.0996 17.4629H78.23C78.4908 18.7668 78.7951 19.7231 79.0124 20.3316L89.0966 44.8466H92.9216L102.919 20.1143C103.136 19.5492 103.354 18.4191 103.571 17.4629H103.701L103.44 23.5047V44.8031H109.221V11.2472H101.311L92.7043 32.3283ZM114.698 20.7228H120.349V44.8031H114.698V20.7228ZM117.567 10.5517C116.611 10.5517 115.828 10.8995 115.176 11.508C114.524 12.1165 114.177 12.8989 114.177 13.8552C114.171 14.2881 114.257 14.7173 114.429 15.1145C114.601 15.5116 114.856 15.8676 115.176 16.1589C115.828 16.7674 116.611 17.0717 117.567 17.0717C118.523 17.0717 119.349 16.7239 119.958 16.1589C120.278 15.8676 120.533 15.5116 120.705 15.1145C120.877 14.7173 120.963 14.2881 120.957 13.8552C120.957 12.9424 120.61 12.16 119.958 11.508C119.393 10.8995 118.567 10.5517 117.567 10.5517ZM140.387 20.5055C139.344 20.2882 138.257 20.1578 137.214 20.1578C134.649 20.1578 132.302 20.7228 130.346 21.8529C128.39 22.9831 126.825 24.5479 125.826 26.5038C124.782 28.5033 124.261 30.807 124.261 33.4584C124.261 35.7621 124.782 37.8051 125.782 39.6741C126.782 41.4997 128.173 42.9775 130.042 43.9773C131.824 44.977 133.91 45.4986 136.257 45.4986C138.952 45.4986 141.256 44.9335 143.082 43.8903L143.125 43.8469V38.6309L142.908 38.8048C142.082 39.4133 141.126 39.9349 140.169 40.2392C139.17 40.5869 138.257 40.7608 137.475 40.7608C135.214 40.7608 133.432 40.1088 132.172 38.6744C130.868 37.2835 130.216 35.371 130.216 32.9803C130.216 30.5027 130.868 28.5467 132.215 27.1124C133.563 25.678 135.345 24.9391 137.518 24.9391C139.344 24.9391 141.213 25.5476 142.908 26.7646L143.125 26.9385V21.4183L143.082 21.3748C142.343 21.0706 141.517 20.7228 140.387 20.5055ZM159.034 20.3316C157.643 20.3316 156.339 20.7663 155.209 21.6791C154.253 22.4615 153.601 23.5916 153.035 24.9391H152.992V20.7228H147.341V44.8031H152.992V32.5022C152.992 30.4158 153.427 28.6772 154.383 27.4166C155.339 26.1126 156.556 25.4606 158.034 25.4606C158.556 25.4606 159.077 25.591 159.729 25.678C160.338 25.8518 160.772 26.0257 161.077 26.243L161.294 26.4169V20.7663L161.164 20.7228C160.772 20.462 159.99 20.3316 159.034 20.3316ZM174.421 20.2012C170.465 20.2012 167.292 21.3748 165.076 23.6785C162.815 25.9822 161.729 29.1553 161.729 33.1542C161.729 36.8923 162.859 39.9349 165.032 42.1517C167.205 44.325 170.161 45.4551 173.856 45.4551C177.724 45.4551 180.81 44.2815 183.027 41.9344C185.287 39.5872 186.374 36.4576 186.374 32.5891C186.374 28.7641 185.331 25.7214 183.201 23.5047C181.158 21.2879 178.159 20.2012 174.421 20.2012ZM178.941 38.7179C177.898 40.0653 176.246 40.7173 174.204 40.7173C172.161 40.7173 170.509 40.0653 169.335 38.6309C168.162 37.2835 167.597 35.3275 167.597 32.8499C167.597 30.2854 168.205 28.3294 169.335 26.9385C170.509 25.5476 172.117 24.8521 174.16 24.8521C176.16 24.8521 177.724 25.5041 178.854 26.8516C179.985 28.199 180.593 30.155 180.593 32.7195C180.506 35.3275 180.028 37.3704 178.941 38.7179ZM198.979 30.7201C197.197 29.9811 196.067 29.4161 195.545 28.9379C195.111 28.5033 194.893 27.8948 194.893 27.1124C194.893 26.4604 195.154 25.8084 195.806 25.3737C196.458 24.9391 197.197 24.7217 198.284 24.7217C199.24 24.7217 200.24 24.8956 201.196 25.1564C202.152 25.4172 203.022 25.8084 203.717 26.33L203.934 26.5038V21.201L203.804 21.1575C203.152 20.8967 202.283 20.6359 201.24 20.4186C200.196 20.2447 199.24 20.1578 198.458 20.1578C195.763 20.1578 193.546 20.8098 191.807 22.2441C190.069 23.5916 189.243 25.4172 189.243 27.547C189.243 28.6771 189.417 29.6769 189.808 30.5027C190.199 31.3286 190.764 32.111 191.547 32.763C192.329 33.3715 193.459 34.067 195.024 34.719C196.328 35.284 197.328 35.7187 197.936 36.0664C198.545 36.4141 198.936 36.8053 199.24 37.1096C199.457 37.4573 199.588 37.892 199.588 38.4571C199.588 40.0653 198.371 40.8477 195.893 40.8477C194.937 40.8477 193.937 40.6738 192.764 40.2826C191.59 39.8914 190.503 39.3264 189.591 38.6744L189.373 38.5005V44.0207L189.504 44.0642C190.329 44.4554 191.329 44.7162 192.546 45.0205C193.763 45.2378 194.85 45.4117 195.806 45.4117C198.718 45.4117 201.109 44.7597 202.804 43.3253C204.543 41.9344 205.456 40.1522 205.456 37.8485C205.456 36.2403 205.021 34.8059 204.065 33.7192C202.804 32.676 201.24 31.5894 198.979 30.7201ZM220.365 20.2012C216.409 20.2012 213.236 21.3748 211.019 23.6785C208.803 25.9822 207.673 29.1553 207.673 33.1542C207.673 36.8923 208.803 39.9349 210.976 42.1517C213.149 44.325 216.105 45.4551 219.8 45.4551C223.668 45.4551 226.754 44.2815 228.971 41.9344C231.231 39.5872 232.318 36.4576 232.318 32.5891C232.318 28.7641 231.275 25.7214 229.145 23.5047C227.102 21.2879 224.103 20.2012 220.365 20.2012ZM224.842 38.7179C223.799 40.0653 222.147 40.7173 220.104 40.7173C218.018 40.7173 216.409 40.0653 215.236 38.6309C214.062 37.2835 213.497 35.3275 213.497 32.8499C213.497 30.2854 214.106 28.3294 215.236 26.9385C216.409 25.5476 218.018 24.8521 220.06 24.8521C222.016 24.8521 223.625 25.5041 224.755 26.8516C225.885 28.199 226.493 30.155 226.493 32.7195C226.493 35.3275 225.928 37.3704 224.842 38.7179ZM262.527 25.3737V20.7228H256.833V13.5944L256.659 13.6378L251.269 15.2461L251.139 15.2895V20.7228H242.619V17.6802C242.619 16.2893 242.967 15.2026 243.576 14.5072C244.184 13.8117 245.097 13.464 246.227 13.464C247.01 13.464 247.835 13.6378 248.748 14.029L248.965 14.1594V9.24774L248.835 9.20427C248.053 8.94347 247.009 8.76961 245.662 8.76961C243.967 8.76961 242.489 9.1608 241.142 9.8128C239.794 10.5517 238.794 11.5514 238.055 12.8989C237.316 14.2029 236.925 15.6807 236.925 17.3759V20.7228H232.97V25.3302H236.925V44.8031H242.619V25.3737H251.139V37.7616C251.139 42.8471 253.529 45.4117 258.311 45.4117C259.093 45.4117 259.919 45.2813 260.701 45.1509C261.527 44.977 262.136 44.7597 262.483 44.5858L262.527 44.5423V39.8914L262.31 40.0653C261.962 40.2826 261.658 40.4565 261.136 40.5869C260.701 40.7173 260.31 40.7608 260.006 40.7608C258.876 40.7608 258.093 40.5 257.528 39.848C257.007 39.2394 256.746 38.2397 256.746 36.7619V25.3737H262.527Z" fill="#5380EA" fill-opacity="0.6"/>
<path d="M0.0342712 0.0328827H26.6791V26.6777H0.0342712V0.0328827Z" fill="#5380EA" fill-opacity="0.6"/>
<path d="M29.4609 0.0328827H56.1058V26.6777H29.4609V0.0328827Z" fill="#5380EA" fill-opacity="0.6"/>
<path d="M0.0342712 29.4595H26.6791V56.1043H0.0342712V29.4595Z" fill="#5380EA" fill-opacity="0.6"/>
<path d="M29.4609 29.4595H56.1058V56.1043H29.4609V29.4595Z" fill="#5380EA" fill-opacity="0.6"/>
</svg>
