<svg width="89" height="73" viewBox="0 0 89 73" fill="none" xmlns="http://www.w3.org/2000/svg">
<path d="M88.2804 8.59195C84.9851 10.0617 81.4899 11.0264 77.9108 11.454C81.6388 9.20451 84.5012 5.64233 85.8491 1.39804C82.3052 3.51529 78.4279 5.00703 74.3846 5.80879C71.0912 2.27638 66.3993 0.0687561 61.2063 0.0687561C51.2355 0.0687561 43.1515 8.20711 43.1515 18.2447C43.1515 19.6695 43.3114 21.0566 43.619 22.3873C28.6143 21.629 15.3112 14.3929 6.40636 3.39594C4.85261 6.08047 3.9623 9.20312 3.9623 12.5338C3.9623 18.84 7.1499 24.4032 11.994 27.6629C9.12697 27.5725 6.323 26.7929 3.81621 25.3892C3.81518 25.4653 3.81518 25.5414 3.81518 25.6179C3.81518 34.4245 10.0384 41.7711 18.2974 43.4409C15.6388 44.1688 12.8501 44.2754 10.1443 43.7524C12.4416 50.9736 19.1093 56.2285 27.0094 56.3755C20.8305 61.2504 13.0456 64.1564 4.58724 64.1564C3.12974 64.1564 1.69286 64.0702 0.280396 63.9024C8.27018 69.0596 17.7601 72.0688 27.9557 72.0688C61.1644 72.0688 79.3236 44.3718 79.3236 20.3527C79.3236 19.5643 79.3065 18.7805 79.2714 18.0011C82.8059 15.4287 85.8567 12.2424 88.2804 8.59195Z" fill="#5380EA" fill-opacity="0.6"/>
</svg>
